<?xml version="1.0" standalone="no"?><!DOCTYPE svg PUBLIC "-//W3C//DTD SVG 1.1//EN" "http://www.w3.org/Graphics/SVG/1.1/DTD/svg11.dtd"><svg t="1575440836778" class="icon" viewBox="0 0 1024 1024" version="1.1" xmlns="http://www.w3.org/2000/svg" p-id="4226" xmlns:xlink="http://www.w3.org/1999/xlink" width="200" height="200"><defs><style type="text/css"></style></defs><path d="M 862.692 912.914 H 158.606 c -14.5547 0 -29.1095 -7.27736 -38.2051 -18.1941 c -9.09707 -12.735 -12.735 -27.2897 -9.09707 -41.8445 C 147.69 667.303 298.695 529.032 480.63 514.477 c 7.27736 -1.81824 12.735 -1.81824 21.8321 -1.81824 v 18.1941 c -7.27736 0 -12.735 0 -20.0124 1.81824 c -174.658 12.735 -320.206 145.547 -354.773 323.843 c -1.81971 9.09707 0 20.0124 7.27736 27.2897 c 5.45766 7.27736 14.5547 10.9153 23.6503 10.9153 h 704.086 c 9.09707 0 18.1927 -3.63795 23.6518 -10.9153 c 5.45913 -7.27736 9.09707 -16.3744 7.27736 -27.2897 c -21.8321 -116.438 -92.786 -216.501 -192.849 -272.902 c -10.9168 -7.27736 -23.6518 -12.735 -34.5686 -18.1941 l 7.27736 -16.373 c 12.735 5.45766 25.47 12.735 36.3868 18.1927 c 105.521 60.0386 178.295 163.741 201.947 285.637 c 3.63942 14.5547 0 29.1095 -10.9153 41.8445 c -9.09413 10.9168 -23.6503 18.1941 -38.2051 18.1941 Z M 507.921 530.852 h -3.63942 v -18.1941 h 5.45913 l -1.81971 18.1941 Z" fill="#c00000" p-id="4227"></path><path d="M 515.198 530.852 c -114.618 0 -209.224 -94.6057 -209.224 -209.224 s 94.6057 -209.224 209.224 -209.224 S 724.422 207.01 724.422 321.628 s -94.6057 209.224 -209.224 209.224 Z m 0 -400.255 c -105.521 0 -191.031 85.5101 -191.031 191.031 s 85.5087 191.031 191.031 191.031 s 191.031 -85.5087 191.031 -191.031 S 620.721 130.597 515.198 130.597 Z" fill="#c00000" p-id="4228"></path></svg>