<?xml version="1.0" standalone="no"?><!DOCTYPE svg PUBLIC "-//W3C//DTD SVG 1.1//EN" "http://www.w3.org/Graphics/SVG/1.1/DTD/svg11.dtd"><svg t="1575441220771" class="icon" viewBox="0 0 1024 1024" version="1.1" xmlns="http://www.w3.org/2000/svg" p-id="6438" xmlns:xlink="http://www.w3.org/1999/xlink" width="200" height="200"><defs><style type="text/css"></style></defs><path d="M874.0365 149.95c-199.933-199.933-524.153-199.933-724.086 0-199.934 199.934-199.934 524.18 0 724.087 199.933 199.934 524.179 199.934 724.087 0 199.933-199.933 199.933-524.153 0-724.087z m-689.399 689.4c-180.785-180.76-180.785-473.876 0-654.687 180.836-180.81 473.953-180.81 654.738-0.025 180.785 180.81 180.785 473.927 0 654.788-180.81 180.862-473.927 180.734-654.712-0.05z" p-id="6439"></path><path d="M439.0985 440.737L230.4105 829.519l378.363-217.75 216.061-381.36-385.736 210.328z m88.498 142.641a53.17 53.17 0 0 1-53.042-53.452c0-29.49 23.807-53.452 53.042-53.452s53.017 23.961 53.017 53.452a53.247 53.247 0 0 1-53.017 53.452z" p-id="6440"></path></svg>