<?xml version="1.0" standalone="no"?><!DOCTYPE svg PUBLIC "-//W3C//DTD SVG 1.1//EN" "http://www.w3.org/Graphics/SVG/1.1/DTD/svg11.dtd"><svg t="1575440800656" class="icon" viewBox="0 0 1024 1024" version="1.1" xmlns="http://www.w3.org/2000/svg" p-id="3413" xmlns:xlink="http://www.w3.org/1999/xlink" width="200" height="200"><defs><style type="text/css"></style></defs><path d="M438.647808 355.344384l198.576128 131.72224c17.841152 11.834368 17.841152 38.032384 0 49.866752L438.647808 668.655616c-19.888128 13.192192-46.459904-1.068032-46.459904-24.933376l0-263.44448C392.187904 356.412416 418.758656 342.152192 438.647808 355.344384z" p-id="3414"></path><path d="M768.736256 133.891072c78.780416 0 142.872576 64.09216 142.872576 142.872576l0 470.472704c0 78.780416-64.09216 142.872576-142.872576 142.872576L251.159552 890.108928c-78.780416 0-142.872576-64.09216-142.872576-142.872576L108.286976 276.763648c0-78.780416 64.09216-142.872576 142.872576-142.872576L768.736256 133.891072M768.736256 88.064 251.159552 88.064C146.944 88.064 62.459904 172.548096 62.459904 276.763648l0 470.472704C62.459904 851.451904 146.944 935.936 251.159552 935.936l517.576704 0c104.215552 0 188.699648-84.484096 188.699648-188.699648L957.435904 276.763648C957.435904 172.548096 872.951808 88.064 768.736256 88.064L768.736256 88.064z" p-id="3415"></path></svg>