<?xml version="1.0" encoding="utf-8"?>
<svg width="33px" height="33px" viewBox="0 0 33 33" version="1.1" xmlns:xlink="http://www.w3.org/1999/xlink" xmlns="http://www.w3.org/2000/svg">
  <desc>Created with Lunacy</desc>
  <path d="M16 32C24.8366 32 32 24.8366 32 16C32 7.16344 24.8366 0 16 0C7.16344 0 0 7.16344 0 16C0 24.8366 7.16344 32 16 32Z" transform="translate(0.5 0.5)" id="椭圆形" fill="#E6E6E6" stroke="none" />
  <path d="M2.01617e-06 11.1311C2.01617e-06 11.6899 0.447573 12.1428 0.99968 12.1428C1.1869 12.1438 1.37057 12.0912 1.52951 11.9911L9.52694 6.93241C9.82106 6.74793 10 6.42264 10 6.07244C10 5.72224 9.82106 5.39694 9.52694 5.21246L1.52951 0.153788C1.22104 -0.041335 0.832182 -0.0514719 0.514192 0.12732C0.196202 0.306112 -0.000726833 0.645608 2.01617e-06 1.01376L2.01617e-06 11.1311ZM1.99936 9.29987L1.99936 2.83488L7.10771 6.06232L1.99936 9.29987Z" transform="translate(9.5 10.5)" id="形状" fill="#E4443D" fill-rule="evenodd" stroke="none" />
  <path d="M1 0L1 0Q1.10272 0 1.20144 0.0186045Q1.30016 0.037209 1.39167 0.0738122Q1.48317 0.110415 1.56449 0.163826Q1.64581 0.217236 1.71429 0.285714Q1.78276 0.354193 1.83617 0.43551Q1.88958 0.516827 1.92619 0.608335Q1.96279 0.699843 1.9814 0.798563Q2 0.897283 2 1L2 11Q2 11.1027 1.9814 11.2014Q1.96279 11.3002 1.92619 11.3917Q1.88958 11.4832 1.83617 11.5645Q1.78276 11.6458 1.71429 11.7143Q1.64581 11.7828 1.56449 11.8362Q1.48317 11.8896 1.39167 11.9262Q1.30016 11.9628 1.20144 11.9814Q1.10272 12 1 12L1 12Q0.897283 12 0.798563 11.9814Q0.699843 11.9628 0.608335 11.9262Q0.516827 11.8896 0.43551 11.8362Q0.354193 11.7828 0.285714 11.7143Q0.217236 11.6458 0.163826 11.5645Q0.110415 11.4832 0.0738122 11.3917Q0.037209 11.3002 0.0186045 11.2014Q0 11.1027 0 11L0 1Q0 0.897283 0.0186045 0.798563Q0.037209 0.699843 0.0738122 0.608335Q0.110415 0.516827 0.163826 0.43551Q0.217236 0.354193 0.285714 0.285714Q0.354193 0.217236 0.43551 0.163826Q0.516827 0.110415 0.608335 0.0738122Q0.699843 0.037209 0.798563 0.0186045Q0.897283 0 1 0Z" transform="translate(21.5 10.5)" id="Rectangle-2" fill="#E4443D" stroke="none" />
</svg>