<?xml version="1.0" encoding="utf-8"?>
<svg width="18px" height="18px" viewBox="0 0 18 18" version="1.1" xmlns:xlink="http://www.w3.org/1999/xlink" xmlns="http://www.w3.org/2000/svg">
  <desc>Created with Lunacy</desc>
  <g id="搜索">
    <path d="M14.366 13.4321L17.7702 16.8283C18.0426 17.1 18.0426 17.5075 17.8043 17.7792C17.5319 18.0509 17.1234 18.0509 16.8511 17.7792L13.4468 14.383C11.983 15.6396 10.1106 16.3189 8.17021 16.3189C5.99149 16.3189 3.91489 15.4698 2.38298 13.9415C0.851064 12.3792 0 10.3415 0 8.16792C0 5.99434 0.851064 3.92264 2.38298 2.39434C5.54894 -0.798113 10.7234 -0.798113 13.9234 2.39434C16.9191 5.41698 17.0894 10.2396 14.366 13.4321ZM1.32766 8.20189C1.32766 10.0019 2.04255 11.7 3.33617 12.9906C4.62979 14.2811 6.33191 14.9604 8.13617 15.0283C9.94043 15.0283 11.6426 14.3151 12.9362 13.0245C15.5915 10.3755 15.5915 6.06226 12.9362 3.41321C11.6085 2.08868 9.87234 1.4434 8.13617 1.4434C6.4 1.4434 4.66383 2.08868 3.33617 3.41321C2.04255 4.66981 1.32766 6.40189 1.32766 8.20189Z" transform="translate(0.01702128 0.01273585)" id="Shape" fill="#FFFFFF" fill-rule="evenodd" stroke="none" />
  </g>
</svg>